<svg width="21" height="23" viewBox="0 0 21 23" fill="none" xmlns="http://www.w3.org/2000/svg">
<path d="M17.375 15.9231V16.3689L17.7066 16.6669L19.7036 18.4615H1.29635L3.29341 16.6669L3.625 16.3689V15.9231V10.0256C3.625 6.82046 5.47638 4.24415 8.7395 3.54936L9.53125 3.38078V2.57128V1.76923C9.53125 1.44036 9.85973 1 10.5 1C11.1403 1 11.4688 1.44036 11.4688 1.76923V2.57128V3.38019L12.2598 3.54921C15.5111 4.24391 17.375 6.83306 17.375 10.0256V15.9231ZM11.5939 21.641C11.3184 21.8571 10.9458 22 10.5 22C10.0492 22 9.67563 21.8572 9.40086 21.641H11.5939Z" fill="white" stroke="#0066FF" stroke-width="2"/>
</svg>
